<svg viewBox="0 0 166 165" fill="none" xmlns="http://www.w3.org/2000/svg">
<g clip-path="url(#clip0_113_808)">
<mask id="mask0_113_808" style="mask-type:luminance" maskUnits="userSpaceOnUse" x="0" y="0" width="166" height="165">
<path d="M165.5 0H0.5V165H165.5V0Z" fill="white"/>
</mask>
<g mask="url(#mask0_113_808)">
<path d="M165.077 35.455L82.9993 72.1618L0.952332 35.4473L84.8231 0L165.077 35.455ZM30.7875 37.9793L83.0068 61.1883L135.212 37.9793L84.4951 15.112L30.7875 37.9793Z" fill="#EBDF9D"/>
<path d="M82.9993 72.1611V85.8392L43.384 66.9512V108.199L82.9993 125.491V138.414L33.9846 114.628V62.3589L20.4152 55.8896V121.036L82.9993 148.355V165L0.952332 129.553V35.4478L82.9993 72.1611ZM82.9993 99.1691V112.251L62.7541 103.811V90.3071L82.9993 99.1691Z" fill="#D4AF37"/>
<path d="M165.049 129.553L83 165V148.355L83.0014 148.355L145.054 121.036V55.8896L132.016 62.1594V114.628L83 138.414V125.491L83.0108 125.495L122.298 108.199V66.9512L83.0108 85.8453L83 85.8392V72.1611L165.049 35.4478V129.553ZM103.246 103.811L83 112.251V99.1691L103.246 90.3071V103.811Z" fill="#AA7A24"/>
<g filter="url(#filter0_i_113_808)">
<path d="M83.4997 51C90.4034 51 95.9998 45.4035 95.9998 38.5C95.9998 31.5964 90.4034 26 83.4997 26C76.5961 26 71.0003 31.5964 71.0003 38.5C71.0003 45.4035 76.5961 51 83.4997 51Z" fill="url(#paint0_linear_113_808)"/>
</g>
</g>
</g>
<defs>
<filter id="filter0_i_113_808" x="70.0003" y="24" width="25.9995" height="27" filterUnits="userSpaceOnUse" color-interpolation-filters="sRGB">
<feFlood flood-opacity="0" result="BackgroundImageFix"/>
<feBlend mode="normal" in="SourceGraphic" in2="BackgroundImageFix" result="shape"/>
<feColorMatrix in="SourceAlpha" type="matrix" values="0 0 0 0 0 0 0 0 0 0 0 0 0 0 0 0 0 0 127 0" result="hardAlpha"/>
<feOffset dx="-1" dy="-2"/>
<feGaussianBlur stdDeviation="2"/>
<feComposite in2="hardAlpha" operator="arithmetic" k2="-1" k3="1"/>
<feColorMatrix type="matrix" values="0 0 0 0 0 0 0 0 0 0 0 0 0 0 0 0 0 0 0.25 0"/>
<feBlend mode="normal" in2="shape" result="effect1_innerShadow_113_808"/>
</filter>
<linearGradient id="paint0_linear_113_808" x1="83.4997" y1="32.875" x2="87.8749" y2="51" gradientUnits="userSpaceOnUse">
<stop stop-color="#EEDA77"/>
<stop offset="1" stop-color="#FCD309"/>
</linearGradient>
<clipPath id="clip0_113_808">
<rect width="165" height="165" fill="white" transform="translate(0.5)"/>
</clipPath>
</defs>
</svg>
